<svg viewBox="0 0 512 512" xmlns="http://www.w3.org/2000/svg"><path d="M480 448V64c17.67 0 32-14.33 32-32S497.67 0 480 0H32C14.33 0 0 14.33 0 32s14.33 32 32 32v384c-17.67 0-32 14.33-32 32s14.33 32 32 32h176v-96h96v96h176c17.67 0 32-14.33 32-32 0-17.7-14.3-32-32-32zM224 108.8c0-6.375 6.375-12.75 12.75-12.75h38.5c6.35-.04 12.75 6.35 12.75 12.75v38.5c0 6.375-6.375 12.75-12.75 12.75h-38.5C230.4 160 224 153.6 224 147.3v-38.5zm0 96c0-6.375 6.375-12.75 12.75-12.75h38.5C281.6 192 288 198.4 288 204.8v38.5c0 6.375-6.375 12.75-12.75 12.75h-38.5C230.4 256 224 249.6 224 243.3v-38.5zm-128-96c0-6.375 6.375-12.75 12.75-12.75h38.5c6.35-.03 12.75 6.35 12.75 12.75v38.5c0 6.375-6.375 12.75-12.75 12.75h-38.5C102.4 160 96 153.6 96 147.3v-38.5zM147.3 256h-38.5c-6.4 0-12.8-6.4-12.8-12.7v-38.5c0-6.375 6.375-12.75 12.75-12.75h38.5C153.6 192 160 198.4 160 204.8v38.5c0 6.3-6.4 12.7-12.7 12.7zM160 384c0-53 43-96 96-96s96 43 96 96H160zm256-140.7c0 6.375-6.375 12.75-12.75 12.75h-38.5C358.4 256 352 249.6 352 243.3v-38.5c0-6.375 6.375-12.75 12.75-12.75h38.5C409.6 192 416 198.4 416 204.8v38.5zm0-96c0 6.375-6.375 12.75-12.75 12.75h-38.5C358.4 160 352 153.6 352 147.3v-38.5c0-6.375 6.375-12.75 12.75-12.75h38.5c6.35-.03 12.75 6.35 12.75 12.75v38.5z" fill="#ffffff" class="fill-000000"></path></svg>